<?xml version="1.0" standalone="no"?>
<!DOCTYPE svg PUBLIC "-//W3C//DTD SVG 20010904//EN"
 "http://www.w3.org/TR/2001/REC-SVG-20010904/DTD/svg10.dtd">
<svg version="1.0" xmlns="http://www.w3.org/2000/svg"
 width="497.000000pt" height="283.000000pt" viewBox="0 0 497.000000 283.000000"
 preserveAspectRatio="xMidYMid meet">

<g transform="translate(0.000000,283.000000) scale(0.100000,-0.100000)"
fill="#000000" stroke="none">
<path d="M2324 2770 c-32 -16 -106 -72 -164 -123 -112 -99 -353 -347 -346
-355 11 -10 139 43 190 79 31 22 87 54 124 71 89 40 119 70 138 138 26 95 44
125 95 164 81 61 61 75 -37 26z"/>
<path d="M2560 2700 c0 -5 30 -41 68 -80 56 -59 72 -70 100 -70 41 0 78 19
116 58 62 66 91 64 222 -21 40 -25 91 -55 115 -68 51 -25 206 -128 264 -174
69 -55 72 -51 10 18 -61 70 -109 103 -250 176 -44 22 -125 70 -180 106 -111
72 -133 77 -198 43 -57 -30 -153 -30 -219 0 -27 12 -48 17 -48 12z"/>
<path d="M1565 2312 c-22 -15 -89 -59 -150 -97 -79 -50 -137 -96 -205 -166
-52 -53 -105 -102 -117 -108 -12 -6 -42 -11 -67 -11 -54 0 -66 -13 -31 -36 42
-28 72 -11 189 108 60 60 120 116 132 124 12 8 61 19 109 24 78 8 88 12 108
37 70 89 89 105 124 98 18 -3 33 -4 33 -1 0 6 -72 56 -80 56 -3 0 -23 -13 -45
-28z"/>
<path d="M3710 2333 c-8 -3 -94 -83 -190 -177 -136 -133 -192 -180 -248 -210
-39 -22 -70 -41 -68 -44 4 -4 162 76 316 161 62 34 68 41 98 106 25 53 45 80
79 106 74 57 86 53 303 -79 70 -43 170 -94 230 -116 202 -78 231 -92 288 -144
46 -41 51 -44 27 -15 -16 20 -43 53 -59 74 -40 52 -100 87 -240 141 -67 26
-194 80 -283 120 -155 71 -221 90 -253 77z"/>
<path d="M812 1949 c-24 -12 -64 -47 -90 -78 -78 -94 -134 -144 -239 -219
-163 -115 -247 -186 -312 -262 -34 -40 -60 -74 -57 -77 3 -3 24 11 47 31 24
20 131 81 238 136 283 144 288 149 379 351 26 57 50 94 73 112 41 32 21 35
-39 6z"/>
<path d="M2463 1800 c-39 -17 -53 -37 -38 -52 6 -5 95 9 102 16 6 6 -8 56 -16
55 -3 0 -25 -9 -48 -19z"/>
<path d="M1020 1717 c-29 -15 -70 -72 -70 -98 0 -14 7 -19 29 -19 23 0 30 6
35 25 9 34 50 53 78 36 17 -10 23 -10 39 5 26 23 24 31 -11 49 -35 18 -67 19
-100 2z"/>
<path d="M1177 1723 c-4 -3 -7 -26 -7 -50 0 -41 1 -43 30 -43 29 0 30 1 30 50
0 46 -2 50 -23 50 -13 0 -27 -3 -30 -7z"/>
<path d="M1310 1595 l0 -135 30 0 30 0 0 135 0 135 -30 0 -30 0 0 -135z"/>
<path d="M1475 1720 c-8 -13 -85 -241 -85 -252 0 -4 13 -8 29 -8 23 0 31 6 40
30 8 26 15 30 45 30 20 0 36 4 36 9 0 23 -14 41 -32 41 -17 0 -19 4 -14 26 4
15 13 41 21 58 14 31 14 31 8 3 -3 -18 5 -59 23 -113 28 -82 30 -84 61 -84
l32 0 -41 123 c-22 67 -45 128 -51 135 -11 15 -63 16 -72 2z"/>
<path d="M1650 1700 l0 -30 100 0 100 0 0 30 0 30 -100 0 -100 0 0 -30z"/>
<path d="M1897 1595 l-46 -135 32 0 c27 0 35 5 44 30 10 26 16 30 48 30 30 0
36 3 31 16 -3 9 -6 20 -6 25 0 5 -11 9 -24 9 -23 0 -24 2 -13 30 6 17 14 30
17 30 3 0 18 -38 34 -85 27 -85 27 -85 61 -85 l35 0 -19 48 c-10 26 -31 85
-46 131 -19 57 -30 79 -36 70 -7 -11 -9 -10 -9 4 0 12 -8 17 -29 17 -27 0 -29
-4 -74 -135z"/>
<path d="M2240 1700 l0 -30 90 0 90 0 0 30 0 30 -90 0 -90 0 0 -30z"/>
<path d="M2440 1596 l0 -136 30 0 31 0 -3 133 -3 132 -27 3 -28 3 0 -135z"/>
<path d="M2520 1630 l0 -100 30 0 30 0 0 100 0 100 -30 0 -30 0 0 -100z"/>
<path d="M2762 1710 c-56 -34 -78 -120 -47 -180 39 -75 112 -91 171 -37 31 28
37 42 41 83 7 72 -27 131 -84 148 -20 7 -23 4 -23 -23 0 -16 6 -34 14 -38 18
-11 36 -47 36 -75 0 -52 -60 -90 -88 -55 -30 35 -21 118 14 131 14 5 20 66 7
66 -5 0 -23 -9 -41 -20z"/>
<path d="M2940 1722 c0 -5 20 -64 45 -132 25 -68 45 -125 45 -127 0 -2 14 -3
31 -3 29 0 31 2 25 28 -5 19 -4 23 3 12 6 -8 12 -12 15 -9 5 5 86 227 86 235
0 3 -14 4 -32 2 -29 -3 -33 -8 -54 -68 -42 -124 -39 -120 -54 -75 -42 131 -50
145 -81 145 -16 0 -29 -4 -29 -8z"/>
<path d="M3285 1720 c-8 -13 -85 -241 -85 -252 0 -4 13 -8 29 -8 23 0 31 6 40
30 8 26 15 30 45 30 20 0 36 4 36 9 0 23 -14 41 -32 41 -17 0 -19 4 -14 26 4
15 13 41 21 58 14 31 14 31 8 3 -3 -18 5 -59 23 -113 28 -82 30 -84 61 -84
l32 0 -41 123 c-22 67 -45 128 -51 135 -11 15 -63 16 -72 2z"/>
<path d="M3460 1701 c0 -24 4 -31 19 -31 10 0 22 -7 25 -16 9 -24 7 -31 -5
-11 -5 9 -17 17 -24 17 -12 0 -15 -19 -15 -100 l0 -100 30 0 29 0 3 73 3 72
32 -75 32 -75 0 70 c0 56 -5 83 -29 135 -27 61 -31 65 -64 68 -34 3 -36 2 -36
-27z"/>
<path d="M3600 1596 l0 -136 30 0 31 0 -3 133 -3 132 -27 3 -28 3 0 -135z"/>
<path d="M3680 1595 l0 -135 30 0 30 0 0 135 0 135 -30 0 -30 0 0 -135z"/>
<path d="M3783 1681 c-28 -43 -30 -50 -15 -55 9 -3 22 -8 28 -11 6 -3 30 22
53 55 l42 60 -38 0 c-34 0 -41 -5 -70 -49z"/>
<path d="M3985 1718 c-21 -58 -85 -249 -85 -253 0 -3 14 -5 31 -5 24 0 32 6
40 30 10 27 15 30 54 30 39 0 44 -3 54 -30 8 -25 15 -30 42 -30 21 0 30 4 27
13 -3 6 -22 63 -42 125 -21 61 -41 112 -46 112 -16 0 -32 -84 -21 -113 14 -37
15 -35 -14 -29 -14 2 -25 5 -25 6 0 2 11 36 25 76 14 40 25 75 25 77 0 10 -61
1 -65 -9z"/>
<path d="M1720 1560 l0 -100 30 0 30 0 0 100 0 100 -30 0 -30 0 0 -100z"/>
<path d="M2360 1601 c0 -70 -14 -86 -64 -77 -24 5 -37 2 -47 -10 -11 -14 -10
-19 10 -35 33 -27 93 -25 128 5 25 21 28 31 31 100 l4 76 -31 0 -31 0 0 -59z"/>
<path d="M1170 1595 c0 -24 2 -25 65 -25 63 0 65 1 65 25 0 24 -2 25 -65 25
-63 0 -65 -1 -65 -25z"/>
<path d="M3750 1594 c0 -14 15 -50 32 -80 30 -50 35 -54 71 -54 44 0 45 -5
-26 93 -51 71 -77 85 -77 41z"/>
<path d="M4300 1596 c-5 -13 -14 -27 -19 -31 -6 -3 -11 -19 -11 -35 0 -16 -7
-30 -16 -34 -10 -4 -14 -12 -10 -22 4 -11 2 -15 -7 -11 -10 4 -13 -2 -10 -21
2 -15 0 -21 -3 -14 -7 14 -34 16 -34 3 0 -6 4 -12 9 -15 5 -3 7 -15 4 -26 -3
-11 -10 -17 -16 -13 -10 6 -8 -16 9 -94 6 -33 6 -33 -27 -26 -33 6 -34 6 -16
-14 23 -27 22 -53 -3 -53 -11 0 -20 -6 -20 -13 0 -8 9 -22 20 -32 26 -24 26
-45 -1 -45 -14 0 -19 -5 -16 -14 3 -8 1 -17 -6 -20 -7 -2 -1 -5 13 -5 14 -1
32 -6 40 -11 17 -11 16 -12 -28 -14 -25 -1 -36 -8 -48 -31 -17 -33 -6 -75 20
-75 12 0 25 -28 26 -53 0 -4 -16 0 -37 8 -43 18 -51 14 -30 -19 15 -23 13 -36
-5 -36 -5 0 -7 4 -4 8 6 10 -11 38 -19 31 -8 -9 7 -69 16 -63 22 13 6 -17 -16
-32 -14 -9 -22 -20 -19 -26 3 -5 8 -7 11 -4 3 3 15 -11 26 -32 11 -20 30 -47
43 -59 13 -12 24 -26 24 -31 0 -11 -58 -3 -66 9 -3 5 -16 9 -29 9 -13 0 -31
10 -39 22 -10 14 -16 17 -16 8 0 -8 10 -24 23 -35 51 -45 36 -76 -17 -34 -22
17 -26 18 -26 5 0 -9 9 -24 20 -33 11 -10 20 -21 20 -25 0 -12 46 -58 59 -58
6 0 11 -5 11 -11 0 -7 8 -18 18 -25 32 -24 -13 -17 -69 12 -28 14 -53 23 -56
20 -4 -3 7 -24 22 -47 20 -28 25 -43 17 -48 -16 -10 -5 -59 24 -103 24 -38 60
-55 90 -44 9 4 27 0 40 -9 21 -13 24 -13 32 1 8 15 11 15 36 -1 16 -11 26 -26
26 -41 0 -13 -2 -24 -5 -24 -2 0 -80 23 -172 51 -92 28 -177 51 -188 51 -69 1
-511 -184 -564 -237 -12 -12 -11 -15 10 -20 13 -3 380 -4 814 -3 l790 3 -223
44 c-272 53 -402 85 -414 103 -4 7 -7 33 -6 57 3 42 5 44 36 47 31 4 33 2 26
-19 -6 -21 -6 -22 13 -4 14 12 29 16 45 12 15 -4 42 1 66 11 35 16 43 26 57
66 17 54 19 84 5 93 -7 4 -3 17 9 33 35 51 37 100 1 57 -7 -8 -21 -15 -31 -15
-10 0 -21 -4 -24 -10 -3 -5 -15 -10 -26 -10 -10 0 -19 5 -19 10 0 6 7 10 15
10 8 0 15 4 15 10 0 5 14 23 30 38 17 16 30 32 30 37 0 4 9 18 20 32 29 38 24
45 -15 22 -28 -17 -35 -18 -35 -6 0 8 7 20 15 27 21 18 7 33 -24 25 -85 -23
-91 -24 -82 -6 5 9 19 25 30 35 12 11 21 25 21 33 0 7 4 13 8 13 8 0 16 14 40
63 2 4 -3 7 -11 7 -19 0 -31 71 -15 81 9 6 9 14 -1 33 -13 24 -15 24 -42 11
-36 -19 -49 -19 -49 1 0 16 23 44 37 44 4 0 13 12 20 26 9 20 9 26 -3 31 -8 3
-14 10 -13 17 3 25 -2 37 -13 35 -7 -1 -23 -1 -36 0 -31 1 -18 21 14 21 13 0
24 5 24 10 0 6 -5 10 -11 10 -8 0 -8 5 1 15 13 15 8 19 -22 16 -24 -3 -23 6 7
41 30 36 31 48 6 48 -28 0 -36 18 -20 46 14 27 6 42 -14 26 -8 -7 -17 -9 -20
-6 -7 7 2 62 15 86 6 12 3 28 -7 48 -12 23 -13 35 -5 50 10 20 3 26 -24 21 -5
-1 -6 6 -2 15 4 11 2 15 -7 11 -10 -4 -12 3 -9 24 5 36 -15 39 -28 5z m180
-686 c0 -5 -2 -10 -4 -10 -3 0 -8 5 -11 10 -3 6 -1 10 4 10 6 0 11 -4 11 -10z
m-70 -250 c0 -5 -2 -10 -4 -10 -3 0 -8 5 -11 10 -3 6 -1 10 4 10 6 0 11 -4 11
-10z m-243 -52 c-3 -8 -6 -5 -6 6 -1 11 2 17 5 13 3 -3 4 -12 1 -19z"/>
<path d="M950 1564 c0 -17 14 -40 39 -65 32 -32 46 -39 79 -39 50 0 94 31 74
52 -7 7 -34 13 -60 13 -43 0 -48 3 -62 32 -12 25 -21 33 -42 33 -24 0 -28 -4
-28 -26z"/>
<path d="M1170 1510 c0 -49 1 -50 30 -50 29 0 30 1 30 50 0 49 -1 50 -30 50
-29 0 -30 -1 -30 -50z"/>
<path d="M2520 1490 l0 -30 85 0 85 0 0 30 0 30 -85 0 -85 0 0 -30z"/>
<path d="M854 1466 c-3 -8 -3 -20 1 -26 3 -5 -1 -10 -10 -10 -9 0 -14 -4 -11
-9 3 -5 -6 -12 -20 -15 -25 -7 -26 -8 -8 -21 13 -10 15 -14 5 -15 -11 0 -11
-3 0 -17 12 -15 12 -16 -4 -10 -17 6 -18 3 -12 -35 4 -24 12 -51 17 -61 9 -17
7 -18 -23 -12 l-33 7 17 -26 c17 -26 17 -26 -8 -36 -30 -11 -31 -24 -5 -50 25
-25 26 -40 1 -40 -22 0 -35 -36 -15 -44 8 -3 14 -10 14 -17 0 -6 -6 -9 -14 -6
-9 3 -21 -4 -30 -19 -9 -13 -23 -24 -31 -24 -17 0 -20 26 -5 35 17 10 11 23
-8 18 -16 -4 -17 4 -16 73 1 66 -2 77 -17 81 -10 3 -18 13 -17 22 4 54 -5 51
-37 -14 -19 -38 -35 -78 -35 -87 0 -21 -16 -24 -23 -5 -5 13 -7 -21 -7 -95 0
-42 -2 -46 -20 -41 -24 6 -25 0 -4 -21 14 -15 14 -17 0 -22 -19 -7 -21 -35 -3
-53 10 -10 9 -14 -5 -22 -24 -14 -23 -39 2 -39 11 0 20 -4 20 -10 0 -5 -10
-10 -23 -10 -25 0 -52 -34 -40 -53 4 -7 15 -18 25 -25 24 -17 24 -46 1 -39
-49 13 -48 14 -48 -32 0 -25 -5 -46 -12 -48 -14 -5 16 -60 47 -88 40 -36 15
-47 -42 -17 -18 9 -36 22 -40 27 -4 6 -8 6 -8 2 0 -5 9 -22 21 -39 26 -36 20
-45 -15 -23 -42 28 -30 3 28 -58 55 -59 51 -75 -11 -38 -38 24 -48 17 -25 -17
9 -13 17 -42 17 -63 1 -50 48 -103 83 -94 13 3 28 2 35 -2 7 -4 25 -6 40 -4
27 2 28 1 25 -30 -4 -39 25 -30 -288 -89 -118 -23 -217 -43 -219 -46 -2 -2
364 -4 815 -4 l819 1 -30 24 c-51 42 -283 152 -415 196 -69 23 -126 43 -128
45 -2 1 8 13 22 27 30 30 43 72 27 91 -9 10 -6 19 14 37 13 13 25 32 25 41 0
14 -8 13 -60 -9 -33 -15 -63 -23 -67 -19 -5 4 1 12 12 19 31 17 127 121 116
125 -6 2 -21 -4 -33 -12 -29 -21 -38 -20 -38 3 0 11 8 22 18 25 9 3 -11 3 -45
0 -63 -5 -82 5 -45 25 9 5 32 29 49 54 32 44 32 45 10 51 -16 4 -19 8 -10 17
9 9 7 16 -10 30 l-22 18 21 -5 c12 -3 25 -1 28 5 4 6 0 11 -10 11 -11 0 -15 6
-11 20 6 25 5 25 -43 1 -22 -11 -42 -16 -44 -13 -7 13 13 52 28 52 7 0 21 11
30 25 9 14 13 25 8 25 -5 0 -14 11 -20 24 -6 13 -17 24 -24 23 -31 -1 -49 4
-44 12 3 4 17 6 31 3 15 -2 25 0 25 7 0 6 -6 11 -12 11 -9 0 -8 4 2 10 12 8
11 10 -7 10 -30 0 -35 13 -12 33 26 23 26 57 -1 50 -25 -7 -26 13 -2 40 17 20
16 20 -15 14 -36 -7 -38 -2 -23 39 15 38 3 91 -22 97 -15 4 -19 11 -15 26 3
14 0 21 -10 21 -8 0 -12 4 -9 9 3 5 -1 14 -9 21 -8 7 -15 20 -15 30 0 10 -7
23 -15 30 -8 7 -15 18 -15 26 0 20 -19 27 -26 10z m-131 -527 c24 -11 55 -59
38 -59 -12 0 -81 29 -81 34 0 8 12 36 16 36 2 0 14 -5 27 -11z m130 -496 c-7
-2 -19 -2 -25 0 -7 3 -2 5 12 5 14 0 19 -2 13 -5z m19 -168 c4 -5 8 -22 8 -37
0 -26 -5 -29 -112 -62 -155 -49 -162 -49 -166 -8 -2 17 1 32 7 32 5 0 16 3 25
6 11 4 16 0 16 -12 0 -14 3 -15 12 -6 7 7 27 12 46 12 44 0 72 16 72 40 0 11
7 20 15 20 8 0 15 7 15 15 0 17 50 17 62 0z m178 -4 c0 -9 -24 -21 -43 -21 -6
0 -2 7 9 15 22 17 34 19 34 6z m-70 -15 c0 -15 -21 -26 -51 -26 -22 0 -15 27
9 33 32 9 42 7 42 -7z"/>
<path d="M2522 1018 c-100 -89 -181 -162 -179 -164 6 -6 213 49 225 61 13 12
143 257 139 261 -1 1 -84 -70 -185 -158z"/>
<path d="M2726 1172 c-10 -17 -11 -16 126 -143 109 -101 116 -106 61 -44 -144
164 -179 199 -187 187z"/>
<path d="M720 1099 c0 -5 5 -7 10 -4 6 3 10 8 10 11 0 2 -4 4 -10 4 -5 0 -10
-5 -10 -11z"/>
<path d="M2672 868 c-62 -17 -111 -32 -110 -33 7 -6 328 29 328 36 0 3 -13 9
-29 12 -16 3 -39 8 -52 11 -13 3 -75 -9 -137 -26z"/>
<path d="M2776 798 l-49 -11 7 -85 c4 -48 9 -89 11 -92 2 -3 27 -3 57 0 l53 5
3 98 c3 109 9 103 -82 85z"/>
<path d="M2490 720 c0 -38 4 -50 15 -50 11 0 15 12 15 50 0 38 -4 50 -15 50
-11 0 -15 -12 -15 -50z"/>
<path d="M2420 709 c0 -47 2 -50 23 -47 19 3 22 10 25 51 3 45 2 47 -22 47
-24 0 -26 -3 -26 -51z"/>
<path d="M4567 733 c-4 -3 -7 -13 -7 -22 1 -13 3 -13 11 2 11 19 8 33 -4 20z"/>
<path d="M1771 701 c-18 -5 -29 -19 -39 -50 l-15 -44 -13 29 c-10 23 -13 25
-14 9 -1 -27 -26 -59 -35 -45 -3 5 -11 8 -16 5 -5 -4 -9 1 -9 9 0 9 -7 16 -15
16 -8 0 -15 -7 -15 -15 0 -9 -6 -12 -17 -9 -15 5 -15 4 -4 -4 12 -9 12 -13 2
-26 -12 -15 -15 -15 -27 1 -12 16 -13 16 -14 -9 0 -25 -9 -33 -32 -29 -5 0 -8
-6 -8 -15 0 -8 -4 -13 -9 -9 -6 3 -7 -9 -4 -30 4 -27 2 -35 -9 -35 -23 0 -40
-24 -27 -37 13 -13 2 -36 -12 -28 -5 4 -19 -5 -31 -18 -13 -13 -30 -26 -38
-29 -8 -3 21 -13 65 -22 465 -101 521 -115 935 -238 98 -29 183 -21 360 36 80
26 204 62 275 81 147 39 614 135 660 135 59 1 -1 19 -196 60 -181 37 -206 40
-364 41 l-170 0 45 19 45 19 -42 0 c-52 1 -60 13 -34 47 36 46 29 56 -35 48
-38 -4 -55 -3 -51 4 8 11 106 37 223 57 l79 14 -80 -5 c-106 -7 -196 -26 -272
-57 l-62 -25 -49 18 c-78 30 -196 50 -279 48 -47 -1 -60 -3 -33 -5 123 -9 330
-55 330 -72 0 -4 -15 -14 -32 -24 -85 -46 -72 -52 16 -8 94 48 99 49 122 34
17 -11 36 -14 64 -9 48 7 50 -1 10 -39 -16 -16 -30 -37 -30 -47 0 -17 -18 -18
-332 -17 -183 0 -355 4 -383 9 -27 4 -43 8 -35 9 8 1 0 8 -17 16 -25 11 -32
20 -30 37 2 19 -4 24 -33 29 -30 6 -32 8 -14 14 27 8 22 33 -12 58 -23 18 -24
17 -24 -3 0 -13 -5 -20 -12 -17 -7 2 -12 12 -12 21 2 23 -38 62 -59 58 -12 -2
-17 3 -17 17 0 22 -14 28 -25 10 -5 -7 -15 -5 -31 5 -25 17 -27 17 -63 7z"/>
<path d="M1177 643 c-10 -9 -9 -23 2 -23 5 0 11 7 15 15 5 15 -5 20 -17 8z"/>
</g>
</svg>
