<?xml version="1.0" standalone="no"?>
<!DOCTYPE svg PUBLIC "-//W3C//DTD SVG 20010904//EN"
 "http://www.w3.org/TR/2001/REC-SVG-20010904/DTD/svg10.dtd">
<svg version="1.0" xmlns="http://www.w3.org/2000/svg"
 width="500.000000pt" height="500.000000pt" viewBox="0 0 500.000000 500.000000"
 preserveAspectRatio="xMidYMid meet">

<g transform="translate(0.000000,500.000000) scale(0.100000,-0.100000)"
fill="#000000" stroke="none">
<path d="M2305 2991 c-67 -39 -210 -166 -327 -292 -53 -57 -95 -105 -93 -107
8 -8 125 41 160 68 22 17 69 44 105 61 91 43 108 61 121 133 12 62 43 104 109
148 l25 17 -25 0 c-14 1 -47 -12 -75 -28z"/>
<path d="M2520 2930 c7 -12 33 -44 59 -71 67 -69 101 -67 188 13 l43 38 37
-15 c21 -9 56 -28 78 -42 22 -15 81 -50 131 -78 50 -29 129 -81 175 -116 80
-60 82 -61 52 -24 -58 73 -97 103 -203 154 -58 28 -136 73 -174 101 -38 28
-80 53 -93 56 -15 4 -46 -4 -85 -21 -68 -31 -111 -29 -180 6 l-39 20 11 -21z"/>
<path d="M1675 2610 c-22 -15 -84 -56 -137 -90 -66 -42 -117 -84 -159 -131
-71 -81 -101 -99 -161 -99 l-42 0 21 -21 c35 -36 67 -19 173 91 101 105 126
120 195 120 59 0 83 13 126 69 33 43 40 47 70 43 l34 -4 -38 26 c-21 14 -39
26 -40 25 -1 0 -20 -13 -42 -29z"/>
<path d="M3473 2630 c-24 -10 -71 -55 -198 -191 -57 -61 -101 -97 -155 -127
-41 -23 -72 -42 -67 -42 13 0 191 91 223 116 17 12 43 26 57 29 34 9 49 27 67
83 18 56 84 112 131 112 36 0 43 -3 185 -91 73 -46 153 -85 235 -115 142 -53
155 -59 188 -88 21 -18 20 -15 -6 24 -36 53 -84 82 -226 134 -54 20 -156 64
-228 97 -139 64 -172 74 -206 59z"/>
<path d="M1072 2323 c-25 -5 -86 -61 -144 -134 -20 -26 -95 -88 -168 -139
-128 -91 -235 -187 -282 -252 l-23 -33 45 36 c49 39 86 60 260 143 154 74 188
106 246 231 25 55 57 112 72 128 14 15 24 26 21 26 -2 -1 -14 -4 -27 -6z"/>
<path d="M3980 2285 c0 -8 -5 -15 -10 -15 -6 0 -10 -6 -9 -12 4 -30 -2 -48
-15 -48 -8 0 -17 -7 -20 -16 -4 -9 -2 -13 5 -8 8 5 8 1 0 -13 -6 -11 -7 -23
-4 -27 3 -3 1 -6 -5 -6 -16 0 -44 -57 -33 -65 6 -3 9 -13 9 -23 0 -9 3 -25 7
-35 7 -16 4 -17 -20 -11 -25 6 -26 5 -16 -15 12 -22 6 -45 -9 -36 -19 12 -19
-14 0 -38 25 -32 25 -37 0 -37 -14 0 -20 -7 -20 -21 0 -15 5 -19 22 -17 11 2
23 -3 25 -9 3 -9 -5 -12 -26 -9 -25 3 -31 0 -31 -15 0 -10 -4 -20 -9 -23 -13
-8 -1 -46 14 -46 13 0 37 -45 28 -53 -3 -3 -21 3 -40 14 -34 19 -34 19 -28 -1
5 -15 2 -20 -12 -20 -17 -1 -17 -1 0 -14 12 -10 15 -16 7 -21 -8 -5 -8 -11 1
-21 6 -8 9 -15 5 -15 -3 -1 -10 -3 -16 -4 -5 -1 -12 -3 -16 -4 -6 -1 42 -68
68 -94 10 -10 18 -21 18 -26 0 -9 -37 -8 -46 2 -4 4 -19 7 -33 7 -14 0 -21 -4
-15 -8 6 -4 13 -15 17 -24 8 -23 -11 -23 -41 -2 -27 19 -30 0 -3 -23 11 -9 18
-20 15 -25 -3 -4 2 -8 10 -8 8 0 18 -9 21 -20 4 -11 11 -18 16 -15 5 4 9 -1 9
-9 0 -8 8 -17 18 -20 9 -3 0 -3 -22 -1 -21 2 -46 11 -56 20 -9 8 -19 15 -22
15 -12 0 -1 -33 15 -45 9 -7 14 -15 10 -18 -3 -4 0 -7 7 -7 11 0 11 -3 2 -12
-41 -41 38 -154 89 -127 10 5 24 2 37 -7 12 -8 22 -11 22 -5 0 6 11 10 25 9
18 -2 28 -10 32 -26 3 -12 3 -25 0 -28 -3 -3 -75 15 -159 40 l-153 46 -81 -25
c-44 -14 -114 -38 -155 -55 -88 -37 -259 -130 -259 -141 0 -5 310 -8 689 -6
379 1 687 4 685 7 -3 2 -82 18 -177 36 -246 45 -354 73 -360 93 -8 32 5 83 19
77 7 -3 16 -1 19 5 4 5 11 7 16 3 6 -4 6 -11 -2 -20 -9 -10 -9 -14 0 -14 6 0
14 7 17 15 4 10 13 13 27 9 11 -3 37 -1 58 6 33 11 41 19 50 54 18 67 18 74 1
81 -11 4 -13 9 -6 13 11 7 44 65 44 78 0 3 -7 1 -15 -6 -27 -22 -85 -48 -90
-40 -3 5 3 13 12 19 10 6 15 11 11 11 -4 0 3 10 15 23 12 13 25 22 30 20 4 -2
7 3 7 12 0 9 7 23 15 31 23 23 18 37 -7 20 -30 -21 -38 -20 -38 4 0 11 5 20
12 20 9 0 9 3 1 11 -8 8 -17 7 -34 -2 -28 -15 -59 -19 -59 -8 0 4 11 16 25 27
14 11 25 27 25 36 0 9 4 16 9 16 9 0 19 26 17 45 -1 6 -5 9 -9 7 -5 -1 -7 6
-5 15 1 10 -1 24 -5 31 -5 7 -2 14 7 18 9 3 13 10 10 15 -3 5 -10 6 -16 3 -6
-4 -8 1 -3 15 7 22 6 22 -29 7 -31 -13 -36 -13 -36 0 0 7 4 14 10 14 5 0 7 7
4 15 -4 9 -1 15 8 15 7 0 19 9 25 19 10 15 9 20 -2 25 -8 3 -15 14 -15 25 0
14 -5 19 -15 15 -21 -9 -19 12 3 21 16 7 15 8 -3 15 -11 5 -14 9 -7 9 20 1 13
21 -8 21 -25 0 -25 5 1 31 20 20 21 44 2 44 -22 0 -25 15 -9 40 14 21 14 25 2
25 -8 0 -18 -5 -21 -10 -11 -18 -26 0 -15 19 9 18 11 37 8 114 -1 30 -5 37
-22 37 -17 0 -18 2 -6 10 13 8 13 10 -2 10 -11 0 -15 5 -12 15 4 9 0 15 -10
15 -9 0 -16 -7 -16 -15z m100 -775 c0 -5 -2 -10 -4 -10 -3 0 -8 5 -11 10 -3 6
-1 10 4 10 6 0 11 -4 11 -10z m-200 -34 c0 -3 -4 -8 -10 -11 -5 -3 -10 -1 -10
4 0 6 5 11 10 11 6 0 10 -2 10 -4z m60 -176 c0 -5 -2 -10 -4 -10 -3 0 -8 5
-11 10 -3 6 -1 10 4 10 6 0 11 -4 11 -10z"/>
<path d="M3020 2260 c-9 -6 -10 -10 -3 -10 6 0 15 5 18 10 8 12 4 12 -15 0z"/>
<path d="M1097 2186 c-3 -7 0 -19 6 -26 9 -10 8 -12 -5 -7 -12 4 -15 2 -11 -9
4 -10 0 -12 -11 -8 -13 5 -15 0 -12 -25 2 -19 -1 -28 -7 -24 -10 6 -7 -17 9
-81 4 -16 2 -26 -5 -26 -6 0 -11 5 -11 10 0 6 -7 10 -16 10 -15 0 -15 -2 0
-25 17 -26 17 -27 -22 -37 -10 -3 -8 -10 7 -30 25 -31 27 -42 6 -34 -14 5 -17
-2 -14 -31 0 -5 7 -7 15 -7 11 2 12 -1 4 -11 -6 -8 -17 -12 -24 -9 -8 3 -16
-4 -19 -15 -3 -12 -12 -21 -21 -21 -12 0 -15 6 -10 25 6 25 -10 37 -18 14 -2
-7 -3 20 -2 60 1 55 -1 71 -12 71 -8 0 -14 10 -14 25 0 14 -3 25 -7 25 -9 0
-33 -49 -33 -67 0 -7 -4 -13 -9 -13 -5 0 -11 -10 -13 -22 -2 -13 -8 -22 -14
-21 -9 1 -12 -9 -16 -52 -1 -6 2 -22 5 -37 6 -23 4 -26 -16 -21 -18 5 -20 3
-9 -8 16 -18 15 -29 -3 -29 -8 0 -15 -4 -15 -9 0 -5 7 -16 15 -25 19 -19 19
-26 -1 -26 -9 0 -14 -7 -12 -17 2 -11 11 -17 21 -15 9 2 17 -1 17 -7 0 -5 -11
-8 -25 -6 -14 1 -25 -3 -25 -9 0 -6 -3 -21 -6 -33 -5 -17 -2 -23 9 -23 8 0 18
-7 21 -16 9 -24 8 -25 -17 -19 -15 4 -28 1 -36 -9 -8 -9 -9 -16 -4 -16 14 0 9
-43 -6 -48 -9 -3 -5 -12 10 -28 12 -13 19 -24 14 -24 -5 0 1 -9 13 -20 12 -11
27 -20 33 -20 7 0 10 -3 7 -6 -3 -3 -30 2 -58 10 -53 16 -53 16 -35 -4 23 -25
14 -36 -15 -20 -18 10 -21 9 -14 -1 11 -18 35 -47 62 -75 15 -15 18 -24 9 -24
-7 0 -18 5 -25 12 -7 7 -12 8 -12 3 0 -6 -4 -3 -10 5 -12 19 -25 6 -15 -17 5
-10 9 -33 10 -51 2 -41 42 -85 69 -78 11 3 25 1 32 -5 8 -7 14 -7 19 1 10 16
45 -7 45 -30 0 -24 -27 -32 -263 -75 -98 -18 -180 -35 -182 -37 -2 -1 310 -4
693 -5 l697 -2 -30 24 c-49 40 -242 132 -350 167 -55 17 -101 33 -103 34 -2 1
8 19 23 39 27 41 31 61 14 67 -6 2 -2 14 10 30 32 40 26 50 -16 28 -21 -11
-49 -20 -63 -19 -18 0 -21 2 -9 7 22 10 79 59 79 69 0 4 9 14 20 21 11 7 20
17 20 23 0 5 -10 3 -22 -5 -28 -20 -48 -20 -48 -1 0 8 5 15 11 15 5 0 8 4 5 9
-4 5 -25 3 -51 -4 -48 -15 -59 -6 -22 20 12 8 22 19 22 23 0 4 10 18 22 31 22
23 22 48 1 35 -6 -4 -8 1 -3 15 4 14 2 21 -6 21 -7 0 -4 6 7 15 17 13 17 14 2
15 -12 0 -15 5 -11 16 5 14 2 14 -32 0 -43 -18 -53 -16 -31 7 8 8 12 17 9 21
-4 3 0 6 8 6 8 0 20 9 26 19 10 15 9 20 -2 25 -8 3 -15 12 -15 19 0 9 -10 13
-30 12 -16 -1 -30 2 -30 7 0 4 11 8 24 8 17 0 24 5 22 18 -2 9 -8 18 -14 18
-25 3 -26 5 -11 17 26 21 31 47 9 47 -23 0 -24 4 -9 32 10 19 9 20 -15 14 -25
-6 -26 -5 -20 21 4 16 11 33 15 39 5 6 2 20 -8 33 -13 19 -13 25 -2 32 8 5 9
9 4 9 -6 0 -16 -5 -23 -12 -9 -9 -12 -7 -13 10 -2 35 -3 38 -22 56 -9 10 -15
21 -12 26 3 4 -2 13 -10 20 -8 7 -15 19 -15 26 0 18 -16 18 -23 0z m-96 -446
c11 0 17 -4 14 -10 -3 -5 -1 -10 4 -10 6 0 11 -7 11 -15 0 -18 -5 -18 -31 -4
-11 5 -17 14 -14 19 3 4 -4 6 -15 3 -22 -6 -26 7 -8 25 8 8 14 9 16 2 2 -5 13
-10 23 -10z m244 -280 c3 -5 1 -10 -4 -10 -6 0 -11 5 -11 10 0 6 2 10 4 10 3
0 8 -4 11 -10z m-125 -294 c0 -33 -1 -34 -84 -60 -47 -14 -98 -29 -115 -32
-29 -6 -31 -5 -31 25 0 24 4 31 20 31 11 0 20 -5 20 -12 0 -9 3 -9 11 -1 6 6
18 9 25 6 24 -9 74 17 74 39 0 14 5 18 16 14 12 -5 15 -2 10 10 -5 13 -2 15
14 11 11 -3 20 -1 20 5 0 5 5 6 10 3 6 -3 10 -21 10 -39z m90 10 c0 -14 -21
-26 -46 -26 -22 0 -16 20 9 30 31 12 37 12 37 -4z m55 4 c-3 -5 -14 -10 -23
-10 -15 0 -15 2 -2 10 20 13 33 13 25 0z"/>
<path d="M2448 2147 c-40 -16 -37 -41 3 -33 17 3 35 6 39 6 5 0 6 9 3 20 -6
22 -7 22 -45 7z"/>
<path d="M1465 2075 c-53 -52 -18 -155 53 -155 29 0 61 24 49 37 -4 3 -21 6
-39 7 -24 1 -36 7 -45 26 -18 36 4 66 45 63 37 -3 52 15 27 34 -28 20 -63 16
-90 -12z"/>
<path d="M1590 2070 c0 -23 4 -30 20 -30 16 0 20 7 20 30 0 23 -4 30 -20 30
-16 0 -20 -7 -20 -30z"/>
<path d="M1680 2065 c0 -35 0 -35 -45 -35 l-45 0 0 -55 c0 -49 2 -55 21 -55
18 0 21 5 17 34 -3 31 -1 35 24 38 26 4 28 2 28 -34 0 -31 3 -38 20 -38 19 0
20 7 20 90 0 83 -1 90 -20 90 -16 0 -20 -7 -20 -35z"/>
<path d="M1785 2088 c-11 -29 -55 -162 -55 -165 0 -13 41 1 50 17 6 12 21 20
36 20 17 0 28 -7 31 -20 3 -13 14 -20 28 -20 l24 0 -26 78 c-30 88 -38 102
-65 102 -10 0 -21 -6 -23 -12z m39 -70 c5 -21 3 -28 -9 -28 -17 0 -18 4 -9 38
8 27 9 26 18 -10z"/>
<path d="M1900 2080 c0 -15 7 -20 25 -20 24 0 25 -2 25 -70 0 -63 2 -70 20
-70 18 0 20 7 20 70 0 68 1 70 25 70 18 0 25 5 25 20 0 18 -7 20 -70 20 -63 0
-70 -2 -70 -20z"/>
<path d="M2072 2010 l-31 -90 24 0 c14 0 25 7 28 20 4 14 14 20 35 20 21 0 31
-6 35 -20 3 -12 14 -20 27 -20 14 0 20 5 17 13 -2 6 -15 44 -27 84 -13 40 -27
70 -32 67 -4 -3 -8 0 -8 5 0 6 -9 11 -19 11 -15 0 -25 -19 -49 -90z m74 -38
c-4 -3 -6 0 -6 6 0 7 -7 12 -16 12 -11 0 -14 5 -10 16 3 9 6 21 7 27 0 7 7 -3
15 -22 8 -18 13 -36 10 -39z"/>
<path d="M2300 2080 c0 -18 7 -20 60 -20 53 0 60 2 60 20 0 18 -7 20 -60 20
-53 0 -60 -2 -60 -20z"/>
<path d="M2430 2010 c0 -83 1 -90 20 -90 19 0 20 7 20 90 0 83 -1 90 -20 90
-19 0 -20 -7 -20 -90z"/>
<path d="M2490 2010 l0 -90 55 0 c48 0 55 2 55 20 0 16 -7 20 -37 20 l-38 0 3
70 c3 65 2 70 -17 70 -20 0 -21 -5 -21 -90z"/>
<path d="M2635 2075 c-52 -51 -18 -155 50 -155 70 0 99 107 43 160 -29 27 -64
25 -93 -5z m77 -40 c13 -30 -2 -75 -26 -75 -20 0 -46 39 -39 59 17 46 47 54
65 16z"/>
<path d="M2771 2088 c0 -7 12 -47 27 -88 22 -62 31 -76 51 -78 19 -3 22 0 18
13 -4 9 -3 14 2 11 7 -5 61 125 61 147 0 4 -9 7 -19 7 -15 0 -24 -13 -37 -55
-10 -30 -20 -55 -24 -55 -3 0 -14 25 -25 55 -13 40 -23 55 -37 55 -10 0 -18
-6 -17 -12z"/>
<path d="M2991 2078 c-61 -165 -59 -158 -32 -158 11 0 22 9 26 19 3 11 18 21
35 23 24 4 30 0 35 -19 5 -20 12 -23 50 -23 l45 0 1 53 0 52 24 -52 c20 -44
28 -53 50 -53 l26 0 -3 87 c-3 74 -6 88 -20 91 -15 3 -18 -5 -19 -50 l-1 -53
-24 53 c-19 42 -28 52 -48 52 -23 0 -24 -2 -25 -82 -1 -45 -3 -83 -4 -85 -2
-1 -16 35 -33 80 -24 66 -33 83 -52 85 -16 2 -24 -3 -31 -20z m42 -68 c3 -13
0 -20 -9 -20 -8 0 -14 9 -14 20 0 11 4 20 9 20 5 0 11 -9 14 -20z"/>
<path d="M3260 2010 c0 -83 1 -90 20 -90 17 0 20 7 20 43 l0 42 26 -42 c19
-32 31 -43 50 -43 27 0 27 3 -14 57 l-24 32 32 46 31 45 -25 0 c-17 0 -31 -11
-48 -37 l-23 -38 -3 38 c-3 29 -7 37 -23 37 -17 0 -19 -8 -19 -90z"/>
<path d="M3461 2078 c-4 -13 -18 -49 -30 -81 -11 -32 -21 -62 -21 -67 0 -18
39 -10 45 9 3 11 18 21 35 23 24 4 30 0 35 -19 4 -16 13 -23 29 -23 l25 0 -30
82 c-17 45 -32 85 -35 90 -11 17 -45 7 -53 -14z m42 -68 c3 -13 0 -20 -9 -20
-8 0 -14 9 -14 20 0 11 4 20 9 20 5 0 11 -9 14 -20z"/>
<path d="M2378 2008 c-3 -41 -5 -43 -36 -44 -40 -1 -49 -9 -32 -29 18 -21 66
-19 90 5 28 28 29 110 1 110 -16 0 -20 -8 -23 -42z"/>
<path d="M2405 1709 c-88 -77 -171 -151 -184 -164 l-24 -23 119 30 119 29 68
131 c38 71 67 131 65 133 -2 2 -75 -60 -163 -136z"/>
<path d="M2590 1837 c0 -7 35 -46 78 -87 139 -135 167 -157 82 -62 -47 51 -98
109 -113 128 -30 35 -47 43 -47 21z"/>
<path d="M2535 1540 c-55 -16 -88 -29 -72 -29 29 -1 188 14 267 25 l45 7 -50
13 c-65 18 -72 17 -190 -16z"/>
<path d="M1896 1552 c-4 -7 -14 -12 -22 -12 -20 0 -38 -20 -42 -45 -2 -11 -8
-24 -14 -30 -8 -7 -9 -5 -5 7 3 10 2 20 -3 23 -6 4 -10 -1 -10 -9 0 -9 -5 -16
-11 -16 -5 0 -7 -4 -4 -10 3 -5 1 -10 -4 -10 -6 0 -11 5 -11 11 0 5 -4 7 -10
4 -5 -3 -10 1 -10 9 0 9 -7 16 -15 16 -8 0 -12 -6 -10 -12 2 -7 -2 -22 -11
-33 -13 -17 -16 -18 -24 -5 -8 12 -10 10 -10 -8 0 -15 -4 -21 -12 -16 -8 5 -9
2 -5 -9 3 -10 2 -17 -3 -17 -6 0 -10 5 -10 10 0 6 -6 5 -14 -2 -9 -9 -11 -19
-5 -30 14 -26 11 -39 -8 -36 -14 2 -18 -3 -16 -25 1 -21 -2 -27 -11 -24 -8 3
-25 -7 -39 -22 l-25 -28 162 -33 c205 -41 427 -97 587 -149 171 -55 212 -55
391 4 181 59 296 88 577 144 l233 48 -183 36 c-174 35 -195 37 -376 37 l-193
0 0 84 c0 75 -2 84 -17 81 -10 -2 -42 -9 -70 -15 l-53 -12 6 -69 7 -69 -222 0
c-144 0 -221 4 -221 10 0 6 -11 15 -24 20 -18 7 -23 14 -19 29 4 17 1 21 -21
21 -14 0 -26 5 -26 10 0 6 6 10 13 10 8 0 14 7 14 15 0 8 -6 15 -14 15 -7 0
-13 5 -13 10 0 6 -4 10 -10 10 -5 0 -10 -7 -10 -16 0 -9 -6 -14 -12 -11 -7 2
-12 11 -10 20 3 19 -27 52 -48 52 -8 0 -14 8 -14 17 1 14 -2 15 -17 5 -15 -9
-21 -8 -32 7 -10 13 -16 15 -21 8z"/>
<path d="M3730 1510 c0 -5 5 -10 11 -10 5 0 7 5 4 10 -3 6 -8 10 -11 10 -2 0
-4 -4 -4 -10z"/>
<path d="M2280 1390 c0 -47 2 -50 25 -50 23 0 25 3 25 50 0 47 -2 50 -25 50
-23 0 -25 -3 -25 -50z"/>
<path d="M2350 1390 c0 -43 3 -50 20 -50 17 0 20 7 20 50 0 43 -3 50 -20 50
-17 0 -20 -7 -20 -50z"/>
</g>
</svg>
